# xmcd
#
# Track frame offsets:
#	150
#	13309
#	26585
#	38880
#	49485
#	61792
#	73827
#	86860
#
# Disc length: 1314 seconds
#
# Revision: 5
# Processed by: cddbd v1.5.2PL0 Copyright (c) Steve Scherf et al.
# Submitted via: CDmax 2.0
#
DISCID=70052008
DTITLE=Various Artist - Risque Blues: Keep On Churnin'
DYEAR=1995
DGENRE=Blues
TTITLE0=Wynonie Harris - Keep On Churnin' (Till the Butter Comes)
TTITLE1=Dorothy Ellis - Drill, Daddy, Drill
TTITLE2=Roy Brown - Rockin' At Midnight
TTITLE3=Little Esther - Turn the Lamps Down Low
TTITLE4=Todd Rhodes with Connie Allen - Rocket 69
TTITLE5=Hank Ballard - The Coffee Grind
TTITLE6=Pete "Guitar" Lewis - Chocolate Pork Chop Man
TTITLE7=Lucky Millinder with Myra Johnson - Silent George
EXTD=LABEL =King Records, Inc.\nID =kscd1418\nUPC =012676-141826\nCOPYRIGH
EXTD=T =1995
EXTT0=
EXTT1=
EXTT2=
EXTT3=
EXTT4=
EXTT5=
EXTT6=
EXTT7=
PLAYORDER=
